<svg width="465" height="477" viewBox="0 0 465 477" fill="none" xmlns="http://www.w3.org/2000/svg">
<path d="M159.091 37.3846C176.509 12.9608 206.692 -1.60359 236.637 0.140963C263.384 1.35687 289.259 15.2076 304.958 36.9088C352.057 100.585 399.261 164.182 446.359 227.859C464.648 251.965 469.538 285.403 458.913 313.738C447.707 345.167 417.762 369.009 384.513 372.445C354.224 376.225 322.561 363.22 303.743 339.167C279.559 307.315 256.274 274.75 232.064 242.899C208.912 274.38 185.601 305.756 162.342 337.158C148.44 355.555 127.402 368.401 104.566 371.864C75.9425 376.78 45.363 366.392 25.3819 345.405C-4.53682 315.589 -8.5806 264.283 16.3164 230.185C63.8904 165.9 111.517 101.669 159.091 37.3846Z" fill="#00FF66"/>
<path d="M216.92 318.232C258.151 309.06 302.659 338.691 310.138 380.19C318.464 416.35 297.32 456.026 262.934 469.638C226.488 486.185 179.706 469.215 161.893 433.478C142.546 399.09 154.598 351.801 187.609 330.338C196.384 324.338 206.506 320.346 216.92 318.232Z" fill="#00FF66"/>
</svg>
